<svg width="178" height="195" viewBox="0 0 178 195" fill="none" xmlns="http://www.w3.org/2000/svg">
<circle cx="57" cy="62" r="84" fill="#FFD900" fill-opacity="0.1"/>
<circle cx="55" cy="62" r="48" fill="#FFD900" fill-opacity="0.3"/>
<circle cx="55" cy="62" r="30" fill="#FFD900"/>
<path d="M-11.334 174.027C-25.7383 174.027 -35.2598 165.043 -35.2598 152.299C-35.2598 141.947 -28.5703 133.646 -18.8535 130.912C-17.2422 111.723 -1.32422 96.7812 17.7676 96.7812C32.3184 96.7812 44.2812 104.643 50.7266 117.582C68.2559 117.533 81.4395 129.496 81.4395 145.658C81.4395 161.576 68.7441 174.027 52.2891 174.027H-11.334Z" fill="url(#paint0_linear_277_94)" fill-opacity="0.8"/>
<path d="M78.666 43.0273C64.2617 43.0273 54.7402 34.043 54.7402 21.2988C54.7402 10.9473 61.4297 2.64648 71.1465 -0.0878906C72.7578 -19.2773 88.6758 -34.2188 107.768 -34.2188C122.318 -34.2188 134.281 -26.3574 140.727 -13.418C158.256 -13.4668 171.439 -1.50391 171.439 14.6582C171.439 30.5762 158.744 43.0273 142.289 43.0273H78.666Z" fill="url(#paint1_linear_277_94)" fill-opacity="0.8"/>
<defs>
<linearGradient id="paint0_linear_277_94" x1="22" y1="76" x2="22" y2="195" gradientUnits="userSpaceOnUse">
<stop stop-color="white"/>
<stop offset="1" stop-color="#CEF2FF"/>
</linearGradient>
<linearGradient id="paint1_linear_277_94" x1="112" y1="-55" x2="112" y2="64" gradientUnits="userSpaceOnUse">
<stop stop-color="white"/>
<stop offset="1" stop-color="#CEF2FF"/>
</linearGradient>
</defs>
</svg>
